<svg width="24" height="24" viewBox="0 0 24 24" fill="none" xmlns="http://www.w3.org/2000/svg">
<g clip-path="url(#clip0_6_13)">
<path d="M10.214 5.28913C10.0466 4.82372 9.87763 4.35448 9.87455 4.34834C9.79391 4.16786 9.60729 4.0542 9.41069 4.07417C9.28627 4.08415 6.34257 4.33759 4.45638 5.85437C3.47029 6.7652 1.50116 12.0904 1.50116 16.6945C1.50116 16.776 1.5219 16.8551 1.5626 16.9257C2.92271 19.3142 6.63056 19.9393 7.47535 19.9662C7.48073 19.9669 7.48534 19.9669 7.48995 19.9669C7.63894 19.9669 7.77871 19.8955 7.8678 19.775L8.7817 18.537C7.27184 18.3073 6.9992 18.0078 6.93546 17.961C6.59447 17.7098 6.34257 17.3581 6.64823 16.9142C6.88323 16.5694 7.37628 16.4557 7.75413 16.65C8.1412 16.8305 9.17722 17.4111 12.253 17.3957C15.3073 17.3865 16.6482 16.7468 16.6674 16.7329C17.1804 16.5018 17.5806 16.597 17.8302 16.9395C18.1274 17.4057 17.9154 17.7213 17.576 17.9717C17.5122 18.0186 17.3578 18.1499 15.7359 18.5339L16.6382 19.7742C16.7266 19.8955 16.8671 19.9662 17.0161 19.9662C17.0215 19.9662 17.0261 19.9662 17.0307 19.9654C17.8762 19.9385 21.5841 19.3134 22.9434 16.9249C22.9841 16.8543 23.0049 16.7752 23.0049 16.6938C23.0049 12.0904 21.0358 6.7652 20.0251 5.8344C18.1635 4.33835 15.2198 4.08492 15.0953 4.07417C14.8987 4.05727 14.7121 4.16863 14.6315 4.34834C14.6284 4.35448 14.4641 4.8314 14.3051 5.29143C14.3051 5.29143 13.0525 5.10788 12.253 5.10788C11.4535 5.10788 10.214 5.28913 10.214 5.28913ZM9.18106 15.0917C8.33243 15.0917 7.64508 14.068 7.64508 12.8039C7.64508 11.5398 8.33243 10.5161 9.18106 10.5161C10.0328 10.3893 10.6986 11.5398 10.717 12.8039C10.717 14.068 10.0297 15.0917 9.18106 15.0917ZM15.325 15.0917C14.4763 15.0917 13.789 14.0611 13.789 12.7901C13.789 11.5191 14.4763 10.4884 15.325 10.4884C16.1736 10.4884 16.861 11.5191 16.861 12.7901C16.861 14.0611 16.1736 15.0917 15.325 15.0917Z" fill="white"/>
</g>
<defs>
<clipPath id="clip0_6_13">
<rect width="23.0397" height="23.0397" fill="white" transform="translate(0.733398 0.5)"/>
</clipPath>
</defs>
</svg>
