<svg width="25" height="24" viewBox="0 0 25 24" fill="none" xmlns="http://www.w3.org/2000/svg">
<path d="M10.4102 4.98879C10.2358 4.50399 10.0598 4.01519 10.0566 4.00879C9.97258 3.82079 9.77818 3.70239 9.57338 3.72319C9.44378 3.73359 6.37738 3.99759 4.41258 5.57759C3.38538 6.52639 1.33418 12.0736 1.33418 16.8696C1.33418 16.9544 1.35578 17.0368 1.39818 17.1104C2.81498 19.5984 6.67738 20.2496 7.55738 20.2776C7.56298 20.2784 7.56778 20.2784 7.57258 20.2784C7.72778 20.2784 7.87338 20.204 7.96618 20.0784L8.91818 18.7888C7.34538 18.5496 7.06138 18.2376 6.99498 18.1888C6.63978 17.9272 6.37738 17.5608 6.69578 17.0984C6.94058 16.7392 7.45418 16.6208 7.84778 16.8232C8.25098 17.0112 9.33018 17.616 12.5342 17.6C15.7158 17.5904 17.1126 16.924 17.1326 16.9096C17.667 16.6688 18.0838 16.768 18.3438 17.1248C18.6534 17.6104 18.4326 17.9392 18.079 18.2C18.0126 18.2488 17.8518 18.3856 16.1622 18.7856L17.1022 20.0776C17.1942 20.204 17.3406 20.2776 17.4958 20.2776C17.5014 20.2776 17.5062 20.2776 17.511 20.2768C18.3918 20.2488 22.2542 19.5976 23.6702 17.1096C23.7126 17.036 23.7342 16.9536 23.7342 16.8688C23.7342 12.0736 21.683 6.52639 20.6302 5.55679C18.691 3.99839 15.6246 3.73439 15.495 3.72319C15.2902 3.70559 15.0958 3.82159 15.0118 4.00879C15.0086 4.01519 14.8374 4.51199 14.6718 4.99119C14.6718 4.99119 13.367 4.79999 12.5342 4.79999C11.7014 4.79999 10.4102 4.98879 10.4102 4.98879ZM9.33418 15.2C8.45018 15.2 7.73418 14.1336 7.73418 12.8168C7.73418 11.5 8.45018 10.4336 9.33418 10.4336C10.2214 10.3016 10.915 11.5 10.9342 12.8168C10.9342 14.1336 10.2182 15.2 9.33418 15.2ZM15.7342 15.2C14.8502 15.2 14.1342 14.1264 14.1342 12.8024C14.1342 11.4784 14.8502 10.4048 15.7342 10.4048C16.6182 10.4048 17.3342 11.4784 17.3342 12.8024C17.3342 14.1264 16.6182 15.2 15.7342 15.2Z" fill="#010D26"/>
</svg>
