<svg width="19" height="19" viewBox="0 0 19 19" fill="none" xmlns="http://www.w3.org/2000/svg">
<path d="M9.58595 0.419922C4.54949 0.419922 0.466064 4.50335 0.466064 9.5398C0.466064 14.5763 4.54949 18.6597 9.58595 18.6597C14.6224 18.6597 18.7058 14.5763 18.7058 9.5398C18.7058 4.50335 14.6224 0.419922 9.58595 0.419922ZM14.4202 12.5547L13.0006 12.5744C13.0006 12.5744 12.6943 12.6345 12.2938 12.3578C11.7626 11.9931 11.2617 11.0438 10.8711 11.1669C10.4751 11.2931 10.4873 12.1473 10.4873 12.1473C10.4873 12.1473 10.4903 12.2978 10.3999 12.3958C10.3019 12.5015 10.1096 12.4908 10.1096 12.4908H9.47347C9.47347 12.4908 8.07052 12.6071 6.83402 11.3182C5.48732 9.91296 4.29717 7.13975 4.29717 7.13975C4.29717 7.13975 4.22726 6.96496 4.30173 6.87528C4.38609 6.77648 4.61333 6.77344 4.61333 6.77344L6.13331 6.76584C6.13331 6.76584 6.27619 6.79092 6.37955 6.86692C6.46391 6.92924 6.51179 7.04627 6.51179 7.04627C6.51179 7.04627 6.75726 7.66871 7.0833 8.23262C7.71865 9.33156 8.01353 9.57248 8.22936 9.45468C8.544 9.28293 8.44976 7.90126 8.44976 7.90126C8.44976 7.90126 8.45584 7.39967 8.29168 7.17623C8.164 7.0022 7.92385 6.95052 7.81897 6.9376C7.73309 6.9262 7.87293 6.72708 8.05533 6.6374C8.32892 6.50364 8.81227 6.49604 9.38303 6.50136C9.82762 6.50592 9.95606 6.53328 10.1293 6.57584C10.6537 6.70276 10.4759 7.19219 10.4759 8.36638C10.4759 8.74257 10.4083 9.27153 10.6788 9.44556C10.7958 9.5208 11.0808 9.45696 11.7914 8.24554C12.1296 7.67099 12.3827 6.99612 12.3827 6.99612C12.3827 6.99612 12.4382 6.87604 12.5241 6.82436C12.6122 6.77116 12.7308 6.78788 12.7308 6.78788L14.3306 6.778C14.3306 6.778 14.8109 6.72024 14.8892 6.93836C14.9712 7.16635 14.7098 7.69911 14.0562 8.57082C12.9831 10.0026 12.8638 9.86964 13.7552 10.698C14.6064 11.4892 14.782 11.8737 14.8116 11.9224C15.1635 12.5083 14.4202 12.5547 14.4202 12.5547Z" fill="white"/>
</svg>
