<svg width="19" height="19" viewBox="0 0 19 19" fill="none" xmlns="http://www.w3.org/2000/svg">
<path d="M9.5 0C4.25363 0 0 4.25363 0 9.5C0 14.7464 4.25363 19 9.5 19C14.7464 19 19 14.7464 19 9.5C19 4.25363 14.7464 0 9.5 0ZM14.5358 12.6405L13.057 12.6611C13.057 12.6611 12.7379 12.7237 12.3207 12.4355C11.7673 12.0555 11.2456 11.0667 10.8387 11.195C10.4263 11.3264 10.4389 12.2162 10.4389 12.2162C10.4389 12.2162 10.4421 12.373 10.3479 12.4751C10.2457 12.5851 10.0455 12.574 10.0455 12.574H9.38283C9.38283 12.574 7.92142 12.6952 6.63338 11.3525C5.23054 9.88871 3.99079 6.99992 3.99079 6.99992C3.99079 6.99992 3.91796 6.81783 3.99554 6.72442C4.08342 6.6215 4.32013 6.61833 4.32013 6.61833L5.90346 6.61042C5.90346 6.61042 6.05229 6.63654 6.15996 6.71571C6.24783 6.78062 6.29771 6.90254 6.29771 6.90254C6.29771 6.90254 6.55342 7.55092 6.89304 8.13833C7.55487 9.28308 7.86204 9.53404 8.08687 9.41133C8.41463 9.23242 8.31646 7.79317 8.31646 7.79317C8.31646 7.79317 8.32279 7.27067 8.15179 7.03792C8.01879 6.85663 7.76863 6.80279 7.65938 6.78933C7.56992 6.77746 7.71558 6.57004 7.90558 6.47662C8.19058 6.33729 8.69408 6.32938 9.28862 6.33492C9.75175 6.33967 9.88554 6.36817 10.066 6.4125C10.6123 6.54471 10.427 7.05454 10.427 8.27767C10.427 8.66954 10.3566 9.22054 10.6384 9.40183C10.7603 9.48021 11.0572 9.41371 11.7974 8.15179C12.1497 7.55329 12.4133 6.85029 12.4133 6.85029C12.4133 6.85029 12.4711 6.72521 12.5606 6.67138C12.6524 6.61596 12.7759 6.63338 12.7759 6.63338L14.4424 6.62308C14.4424 6.62308 14.9427 6.56292 15.0243 6.79012C15.1098 7.02763 14.8374 7.58258 14.1566 8.49063C13.0388 9.98213 12.9145 9.84358 13.8431 10.7065C14.7298 11.5306 14.9126 11.9312 14.9435 11.9819C15.31 12.5923 14.5358 12.6405 14.5358 12.6405Z" fill="#010D26"/>
</svg>
