<svg width="24" height="24" viewBox="0 0 24 24" fill="none" xmlns="http://www.w3.org/2000/svg">
<path d="M11.519 3.5719C8.30422 3.5719 4.13162 4.37739 4.13162 4.37739L4.12112 4.38939C2.65693 4.62356 1.53516 5.88172 1.53516 7.41185V12.0198V12.0213V16.6277V16.6292C1.53659 17.36 1.79848 18.0663 2.27381 18.6214C2.74914 19.1764 3.40677 19.5439 4.12862 19.6577L4.13162 19.6622C4.13162 19.6622 8.30422 20.4692 11.519 20.4692C14.7338 20.4692 18.9064 19.6622 18.9064 19.6622L18.9079 19.6607C19.6306 19.5471 20.289 19.1794 20.7646 18.6237C21.2403 18.068 21.5021 17.3607 21.5029 16.6292V16.6277V12.0213V12.0198V7.41185C21.5018 6.68082 21.2401 5.97414 20.7647 5.41877C20.2894 4.8634 19.6315 4.49575 18.9094 4.38189L18.9064 4.37739C18.9064 4.37739 14.7338 3.5719 11.519 3.5719ZM9.21506 8.48584L15.359 12.0198L9.21506 15.5537V8.48584Z" fill="white"/>
</svg>
