<svg width="22" height="18" viewBox="0 0 22 18" fill="none" xmlns="http://www.w3.org/2000/svg">
<path d="M10.8668 0.199951C7.518 0.199951 3.17148 1.03901 3.17148 1.03901L3.16055 1.05151C1.63533 1.29544 0.466797 2.60605 0.466797 4.19995V8.99995V9.00151V13.8V13.8015C0.468285 14.5627 0.741093 15.2985 1.23624 15.8767C1.73138 16.4549 2.41642 16.8376 3.16836 16.9562L3.17148 16.9609C3.17148 16.9609 7.518 17.8015 10.8668 17.8015C14.2156 17.8015 18.5621 16.9609 18.5621 16.9609L18.5637 16.9593C19.3164 16.841 20.0023 16.458 20.4978 15.8791C20.9933 15.3002 21.266 14.5635 21.2668 13.8015V13.8V9.00151V8.99995V4.19995C21.2657 3.43845 20.993 2.70231 20.4979 2.1238C20.0027 1.54528 19.3174 1.16231 18.5652 1.0437L18.5621 1.03901C18.5621 1.03901 14.2156 0.199951 10.8668 0.199951ZM8.4668 5.3187L14.8668 8.99995L8.4668 12.6812V5.3187Z" fill="#010D26"/>
</svg>
